PathFileType	4	(X/Y/Z)	/Users/itak/Documents/Research/Walk-IL/dataset/trc/00030_00004.trc
DataRate	CameraRate	NumFrames	NumMarkers	Units	OrigDataRate	OrigDataStartFrame	OrigNumFrames
100.000000	100.000000	4	53	mm	100.000000	191	764
Frame#	Time	RPSI			LPSI			L3			STRN			T10			C7			CLAV			RBAK			LBAK			LSHO			LUPA			LAEL			LAOL			LWTS			LWPS			LFRA			LIFD			LHPS			LHTS			RSHO			RUPA			RAEL			RAOL			RWTS			RWPS			RFRA			RIFD			RHTS			RHPS			RBHD			LFHD			RFHD			LBHD			LHIP			RHIP			RASI			LASI			LKNE			LTHI			LANK			LTIP			LTOE			LMT1			LMT5			LHEE			RKNE			RTHI			RANK			RTIP			RTOE			RMT1			RMT5			RHEE			
		X1	Y1	Z1	X2	Y2	Z2	X3	Y3	Z3	X4	Y4	Z4	X5	Y5	Z5	X6	Y6	Z6	X7	Y7	Z7	X8	Y8	Z8	X9	Y9	Z9	X10	Y10	Z10	X11	Y11	Z11	X12	Y12	Z12	X13	Y13	Z13	X14	Y14	Z14	X15	Y15	Z15	X16	Y16	Z16	X17	Y17	Z17	X18	Y18	Z18	X19	Y19	Z19	X20	Y20	Z20	X21	Y21	Z21	X22	Y22	Z22	X23	Y23	Z23	X24	Y24	Z24	X25	Y25	Z25	X26	Y26	Z26	X27	Y27	Z27	X28	Y28	Z28	X29	Y29	Z29	X30	Y30	Z30	X31	Y31	Z31	X32	Y32	Z32	X33	Y33	Z33	X34	Y34	Z34	X35	Y35	Z35	X36	Y36	Z36	X37	Y37	Z37	X38	Y38	Z38	X39	Y39	Z39	X40	Y40	Z40	X41	Y41	Z41	X42	Y42	Z42	X43	Y43	Z43	X44	Y44	Z44	X45	Y45	Z45	X46	Y46	Z46	X47	Y47	Z47	X48	Y48	Z48	X49	Y49	Z49	X50	Y50	Z50	X51	Y51	Z51	X52	Y52	Z52	X53	Y53	Z53	

192	1.91	-82.78068542480469	1047.43603515625	651.8706665039062	-136.1420745849609	1053.638549804688	806.274658203125	-107.3721694946289	1116.16064453125	734.6083984375	-319.7470703125	1291.039428710938	622.96044921875	-90.55416870117188	1261.462890625	736.8536987304688	-151.4821319580078	1523.71826171875	696.560791015625	-285.9099426269531	1418.922607421875	630.7430419921875	-62.61871337890625	1384.996215820312	664.59619140625	-177.5658721923828	1495.715454101562	795.78466796875	-301.6016235351562	1499.50146484375	813.059814453125	-302.894775390625	1390.386962890625	915.0794067382812	-302.978271484375	1182.507446289062	978.126220703125	-212.4523468017578	1165.702758789062	927.5294189453125	-354.3233642578125	922.0565185546875	912.733154296875	-312.6849670410156	915.2061767578125	990.1889038085938	-317.7449951171875	1066.862182617188	991.6357421875	-369.60693359375	735.1303100585938	900.990478515625	-342.0072631835938	823.9921875	980.9055786132812	-380.283935546875	828.8511962890625	921.3441162109375	-138.6965637207031	1486.865112304688	510.0861511230469	-89.39678192138672	1414.640258789062	461.9644775390625	-23.51774787902832	1152.824951171875	480.5314025878906	-67.16817474365234	1130.358276367188	569.0370483398438	-152.8190155029297	892.01318359375	464.5259399414062	-64.10542297363281	872.6206665039062	442.6299133300781	-24.7995548248291	1074.230712890625	467.6097412109375	-183.5068206787109	709.8203735351562	487.1584167480469	-178.6197052001953	782.4515380859375	446.01171875	-105.3792343139648	771.4775390625	433.3412475585938	-271.929931640625	1702.255249023438	691.7546997070312	-250.936767578125	1681.17138671875	474.6919860839844	-336.5671081542969	1694.742065429688	521.0745849609375	-150.7969360351562	1679.706420898438	617.5671997070312	-265.7190856933594	954.7250366210938	884.277587890625	-160.7455291748047	922.0650024414062	529.1517944335938	-277.9991455078125	962.8131713867188	560.379150390625	-351.0316772460938	994.9853515625	780.7462768554688	-381.4554138183594	506.2541809082031	862.054931640625	-342.552001953125	652.2459106445312	891.1508178710938	-31.91339874267578	218.6602478027344	1103.102416992188	-206.952392578125	371.2291564941406	999.5608520507812	-155.5945587158203	64.03746795654297	1004.080932617188	-110.8662414550781	103.2423706054688	998.4282836914062	-121.5573577880859	133.3062744140625	1099.527465820312	31.29451370239258	264.5169677734375	1067.5224609375	-301.8919372558594	508.7718200683594	590.5125732421875	-215.4370574951172	761.5809936523438	529.9169921875	-250.0334625244141	42.27995681762695	752.8800659179688	-298.1515197753906	380.6154174804688	620.9091186523438	-465.6510009765625	42.88575744628906	656.6640014648438	-431.5278015136719	48.62405014038086	714.980224609375	-359.5486450195312	42.571044921875	650.297119140625	-232.3923950195312	45.34912490844727	821.1721801757812	
193	1.92	-88.59756469726562	1047.95458984375	647.1835327148438	-144.5367584228516	1054.084350585938	800.7176513671875	-114.461296081543	1116.559326171875	729.501220703125	-324.5502624511719	1292.172119140625	615.73046875	-97.5220947265625	1261.836669921875	732.1836547851562	-156.9655303955078	1524.377807617188	691.867919921875	-290.80078125	1419.99560546875	624.1851806640625	-68.02422332763672	1385.53369140625	660.652099609375	-184.2164916992188	1496.130004882812	790.6549682617188	-308.4723815917969	1500.177612304688	806.5272827148438	-310.9325256347656	1390.891845703125	908.4036865234375	-311.8995971679688	1182.897705078125	971.1295776367188	-220.6597900390625	1166.06982421875	921.3948974609375	-363.0884399414062	922.6633911132812	904.8452758789062	-322.3541870117188	915.5900268554688	982.7554931640625	-326.9620971679688	1067.272338867188	984.3160400390625	-378.640625	735.8199462890625	892.6971435546875	-351.6278076171875	824.468017578125	972.8796997070312	-389.2579345703125	829.5324096679688	913.1062622070312	-142.0300140380859	1488.04345703125	505.4594116210938	-92.28812408447266	1415.753784179688	457.7496948242188	-27.77277946472168	1153.588745117188	476.6541442871094	-72.47718811035156	1131.106201171875	564.5120239257812	-157.958740234375	893.303955078125	458.3599548339844	-68.85665130615234	873.6647338867188	437.5487365722656	-29.19219398498535	1075.009887695312	463.5678100585938	-188.4892425537109	710.9902954101562	480.8038330078125	-183.7898406982422	783.8356323242188	439.431884765625	-110.3829040527344	772.6680908203125	427.6004943847656	-277.2359313964844	1703.520263671875	685.4838256835938	-253.7198944091797	1682.062866210938	468.7318115234375	-339.8858947753906	1695.723022460938	514.0863037109375	-155.2579498291016	1680.8408203125	612.7716674804688	-276.1064758300781	955.5800170898438	876.1807861328125	-164.0087585449219	922.08203125	523.6318969726562	-282.0914001464844	963.3934936523438	552.1251220703125	-359.0538940429688	996.1378173828125	771.0435180664062	-396.806640625	508.3743591308594	847.376953125	-357.2980041503906	653.6243286132812	879.03271484375	-60.61155700683594	212.3977661132812	1095.972290039062	-228.8886566162109	369.635498046875	988.5072631835938	-187.3253631591797	62.55682373046875	993.3204956054688	-141.0363464355469	100.1518859863281	988.9308471679688	-153.2508850097656	130.573486328125	1089.797119140625	5.081966400146484	256.0152587890625	1062.175537109375	-302.6960144042969	507.6954040527344	587.875244140625	-218.15869140625	760.8936767578125	525.12744140625	-250.06689453125	42.29738235473633	752.8480224609375	-298.4757385253906	379.8449401855469	619.1364135742188	-465.6853942871094	42.82906723022461	656.6978759765625	-431.4653930664062	48.61572265625	714.9728393554688	-359.5203247070312	42.53206634521484	650.2573852539062	-232.3545684814453	45.52342224121094	821.1047973632812	
194	1.93	-94.36038970947266	1048.425415039062	642.5418701171875	-152.9206237792969	1054.468872070312	795.140625	-121.5193405151367	1116.872436523438	724.4047241210938	-329.2659301757812	1293.20849609375	608.4210205078125	-104.4647216796875	1262.114990234375	727.5286254882812	-162.4293365478516	1524.955200195312	687.2034301757812	-295.5686340332031	1420.967041015625	617.6234741210938	-73.38272094726562	1385.998657226562	656.7763671875	-190.8869171142578	1496.453735351562	785.5256958007812	-315.35986328125	1500.735961914062	799.9307861328125	-319.0160522460938	1391.27978515625	901.6519775390625	-320.8680419921875	1183.181396484375	964.080078125	-228.8941192626953	1166.380981445312	915.3002319335938	-371.7615966796875	923.1463012695312	896.8805541992188	-331.9891967773438	915.8654174804688	975.2752685546875	-336.2031555175781	1067.581176757812	976.9381103515625	-387.4890441894531	736.3726806640625	884.3181762695312	-361.1583251953125	824.8361206054688	964.8104248046875	-398.1108093261719	830.0756225585938	904.7637939453125	-145.2842102050781	1489.13818359375	500.8806457519531	-95.04302215576172	1416.800659179688	453.6258544921875	-31.85364723205566	1154.29736328125	472.8979187011719	-77.60330963134766	1131.811157226562	560.0703125	-162.8646545410156	894.5429077148438	452.3287048339844	-73.42176055908203	874.6533813476562	432.5803527832031	-33.39838027954102	1075.730102539062	459.6365966796875	-193.3520355224609	712.1403198242188	474.58349609375	-188.7756652832031	785.182861328125	433.0075988769531	-115.1992568969727	773.7926635742188	422.0173034667969	-282.4800720214844	1704.670288085938	679.2186889648438	-256.3699645996094	1682.901245117188	462.8082885742188	-343.0902099609375	1696.651489257812	507.1080017089844	-159.6599731445312	1681.879150390625	608.0224609375	-286.4216918945312	956.396240234375	868.0094604492188	-167.1931762695312	922.0501708984375	518.1904296875	-286.0509338378906	963.89404296875	543.9134521484375	-366.95703125	997.2312622070312	761.2874755859375	-411.5934448242188	510.5249938964844	832.3297729492188	-371.7562255859375	655.0009765625	866.570556640625	-89.90933227539062	205.4190673828125	1087.907470703125	-250.7611846923828	367.7082214355469	976.9451904296875	-219.7969818115234	61.01676559448242	981.2921752929688	-171.9105224609375	96.79316711425781	978.2615356445312	-185.5835113525391	127.5413131713867	1078.901123046875	-21.73245811462402	246.5418395996094	1056.0322265625	-303.3764953613281	506.6448669433594	585.3086547851562	-220.7602081298828	760.1888427734375	520.4262084960938	-250.1082153320312	42.31365585327148	752.8170776367188	-298.7259216308594	379.1059875488281	617.4274291992188	-465.7212829589844	42.77290344238281	656.7267456054688	-431.4051513671875	48.62068939208984	714.9573364257812	-359.4889831542969	42.49523162841797	650.2151489257812	-232.3025665283203	45.73750686645508	821.0289306640625	
195	1.94	-100.06591796875	1048.839599609375	637.9611206054688	-161.3111114501953	1054.792236328125	789.548095703125	-128.5570983886719	1117.095458984375	719.3277587890625	-333.9104309082031	1294.148559570312	601.0282592773438	-111.3504333496094	1262.298706054688	722.8916015625	-167.8819427490234	1525.444946289062	682.5528564453125	-300.2157287597656	1421.842041015625	611.0603637695312	-78.70200347900391	1386.387084960938	652.9588012695312	-197.5876770019531	1496.683837890625	780.381591796875	-322.2550048828125	1501.182861328125	793.2683715820312	-327.1470947265625	1391.551513671875	894.8084106445312	-329.8929748535156	1183.360473632812	956.9488525390625	-237.2047576904297	1166.62939453125	909.206787109375	-380.3455810546875	923.4989624023438	888.8451538085938	-341.5688781738281	916.0352172851562	967.7421264648438	-345.4712524414062	1067.79150390625	969.4863891601562	-396.1492919921875	736.7792358398438	875.8761596679688	-370.5921325683594	825.0883178710938	956.7068481445312	-406.8449096679688	830.4692993164062	896.3317260742188	-148.4669647216797	1490.130737304688	496.34130859375	-97.67970275878906	1417.765625	449.5850219726562	-35.74088287353516	1154.9384765625	469.2460632324219	-82.53700256347656	1132.461059570312	555.7080078125	-167.5242614746094	895.7219848632812	446.4375915527344	-77.80657958984375	875.5760498046875	427.7130737304688	-37.40775680541992	1076.379272460938	455.8000793457031	-198.1427307128906	713.2752685546875	468.4631958007812	-193.577880859375	786.490478515625	426.7298583984375	-119.8478317260742	774.8426513671875	416.5721435546875	-287.672607421875	1705.696044921875	672.95068359375	-258.905517578125	1683.67529296875	456.9123840332031	-346.1929626464844	1697.510864257812	500.13330078125	-164.0185089111328	1682.813720703125	603.3072509765625	-296.6659545898438	957.1638793945312	859.7628173828125	-170.3270416259766	921.9677124023438	512.821044921875	-289.8673706054688	964.314697265625	535.7537841796875	-374.7522583007812	998.2500610351562	751.4721069335938	-425.7974243164062	512.68701171875	816.9497680664062	-385.8565063476562	656.3566284179688	853.8021240234375	-119.7826080322266	197.832763671875	1078.821044921875	-272.5546569824219	365.4752807617188	964.8467407226562	-252.8222045898438	59.50902557373047	967.8977661132812	-203.3516845703125	93.26730346679688	966.3242797851562	-218.4302215576172	124.2939605712891	1066.754516601562	-49.16058349609375	236.2231292724609	1049.013061523438	-303.9479064941406	505.6169738769531	582.8034057617188	-223.2548370361328	759.4615478515625	515.8076171875	-250.1566467285156	42.33428573608398	752.7886352539062	-298.9229125976562	378.4007263183594	615.777099609375	-465.7594299316406	42.7161979675293	656.7506103515625	-431.3554992675781	48.63964080810547	714.93115234375	-359.4568481445312	42.46047592163086	650.1705932617188	-232.2480163574219	45.99082565307617	820.9497680664062	
